<svg width="12" height="12" viewBox="0 0 12 12" fill="none" xmlns="http://www.w3.org/2000/svg">
<path d="M8.42514 0H3.57486C1.60368 0 0 1.60368 0 3.57486V8.42514C0 10.3963 1.60368 12 3.57486 12H8.42514C10.3963 12 12 10.3963 12 8.42514V3.57486C12 1.60368 10.3963 0 8.42514 0ZM10.7928 8.42514C10.7928 9.73275 9.73275 10.7928 8.42514 10.7928H3.57486C2.26725 10.7928 1.2072 9.73275 1.2072 8.42514V3.57486C1.2072 2.26723 2.26725 1.2072 3.57486 1.2072H8.42514C9.73275 1.2072 10.7928 2.26723 10.7928 3.57486V8.42514Z" fill="#282A2E"/>
<path d="M6.00005 2.89636C4.28871 2.89636 2.89642 4.28865 2.89642 5.99997C2.89642 7.71129 4.28871 9.10359 6.00005 9.10359C7.71139 9.10359 9.10368 7.71131 9.10368 5.99997C9.10368 4.28862 7.71139 2.89636 6.00005 2.89636ZM6.00005 7.89642C4.95267 7.89642 4.10362 7.04737 4.10362 5.99999C4.10362 4.95261 4.9527 4.10356 6.00005 4.10356C7.04743 4.10356 7.89648 4.95261 7.89648 5.99999C7.89648 7.04734 7.0474 7.89642 6.00005 7.89642Z" fill="#282A2E"/>
<path d="M9.10966 3.66338C9.52039 3.66338 9.85335 3.33042 9.85335 2.91969C9.85335 2.50896 9.52039 2.17599 9.10966 2.17599C8.69893 2.17599 8.36597 2.50896 8.36597 2.91969C8.36597 3.33042 8.69893 3.66338 9.10966 3.66338Z" fill="#282A2E"/>
</svg>
