<svg width="42" height="42" viewBox="0 0 42 42" fill="none" xmlns="http://www.w3.org/2000/svg">
<rect x="1" y="1" width="40" height="40" rx="20" stroke="#E7EBEF" stroke-width="2"/>
<path d="M24.2335 13H17.7665C15.1382 13 13 15.1382 13 17.7665V24.2335C13 26.8618 15.1382 29 17.7665 29H24.2335C26.8618 29 29 26.8618 29 24.2335V17.7665C29 15.1382 26.8617 13 24.2335 13ZM27.3904 24.2335C27.3904 25.977 25.977 27.3904 24.2335 27.3904H17.7665C16.023 27.3904 14.6096 25.977 14.6096 24.2335V17.7665C14.6096 16.023 16.023 14.6096 17.7665 14.6096H24.2335C25.977 14.6096 27.3904 16.023 27.3904 17.7665V24.2335Z" fill="#282A2E"/>
<path d="M21 16.8618C18.7183 16.8618 16.8619 18.7182 16.8619 21C16.8619 23.2817 18.7183 25.1381 21 25.1381C23.2818 25.1381 25.1382 23.2817 25.1382 21C25.1382 18.7182 23.2818 16.8618 21 16.8618ZM21 23.5286C19.6035 23.5286 18.4715 22.3965 18.4715 21C18.4715 19.6035 19.6036 18.4714 21 18.4714C22.3965 18.4714 23.5286 19.6035 23.5286 21C23.5286 22.3965 22.3965 23.5286 21 23.5286Z" fill="#282A2E"/>
<path d="M25.1462 17.8845C25.6938 17.8845 26.1378 17.4406 26.1378 16.8929C26.1378 16.3453 25.6938 15.9013 25.1462 15.9013C24.5986 15.9013 24.1546 16.3453 24.1546 16.8929C24.1546 17.4406 24.5986 17.8845 25.1462 17.8845Z" fill="#282A2E"/>
</svg>
