<svg width="42" height="42" viewBox="0 0 42 42" fill="none" xmlns="http://www.w3.org/2000/svg">
<rect x="1" y="1" width="40" height="40" rx="20" stroke="#E7EBEF" stroke-width="2"/>
<path fill-rule="evenodd" clip-rule="evenodd" d="M17.8235 25.441C18.1404 25.6082 18.4932 25.6955 18.8514 25.6953C20.0446 25.6953 21.0186 24.7462 21.0626 23.5633L21.067 13H23.7025C23.7028 13.2244 23.7236 13.4482 23.7648 13.6688H21.8351V13.6691H24.471C24.4706 14.5532 24.791 15.4074 25.3728 16.0731L25.3736 16.0739C25.967 16.4616 26.6607 16.6677 27.3696 16.6671V17.2541C27.6177 17.3072 27.8742 17.3355 28.1381 17.3355V19.9717C26.8222 19.9733 25.5393 19.5607 24.471 18.7925V24.1489C24.471 26.8236 22.2946 29 19.6195 29C18.9534 29.0002 18.2943 28.8627 17.6837 28.5963C17.0736 28.3301 16.525 27.9408 16.0722 27.4528L16.0712 27.4521C14.8201 26.5737 14 25.1211 14 23.4801C14 20.805 16.1764 18.6283 18.8514 18.6283C19.0702 18.6294 19.2886 18.6453 19.5052 18.676V19.3C19.5204 19.2997 19.5356 19.2992 19.5508 19.2987C19.5736 19.2979 19.5964 19.2971 19.6195 19.2971C19.8383 19.2981 20.0567 19.3141 20.2733 19.3447V22.0356C20.0666 21.9707 19.8478 21.933 19.6195 21.933C19.0321 21.9337 18.4689 22.1674 18.0535 22.5828C17.6381 22.9982 17.4045 23.5615 17.404 24.1489C17.404 24.6129 17.5506 25.065 17.823 25.4407L17.8235 25.441ZM15.0881 25.8799C15.3132 26.4665 15.6493 26.9987 16.0701 27.451C15.6407 26.9914 15.3091 26.457 15.0881 25.8799Z" fill="#282A2E"/>
</svg>
