<svg width="42" height="42" viewBox="0 0 42 42" fill="none" xmlns="http://www.w3.org/2000/svg">
<rect x="1" y="1" width="40" height="40" rx="20" stroke="#E7EBEF" stroke-width="2"/>
<path d="M21.2259 17.7242L21.2626 18.3298L20.6506 18.2556C18.4227 17.9714 16.4764 17.0075 14.8239 15.3886L14.016 14.5853L13.8079 15.1785C13.3672 16.5008 13.6488 17.8972 14.5668 18.8364C15.0565 19.3555 14.9463 19.4296 14.1017 19.1207C13.8079 19.0218 13.5508 18.9477 13.5264 18.9847C13.4407 19.0712 13.7345 20.1958 13.967 20.6407C14.2853 21.2586 14.9341 21.8641 15.644 22.2225L16.2438 22.5067L15.5339 22.5191C14.8484 22.5191 14.8239 22.5315 14.8973 22.791C15.1422 23.5942 16.1092 24.4469 17.1864 24.8177L17.9453 25.0772L17.2843 25.4727C16.305 26.0411 15.1544 26.3624 14.0038 26.3871C13.4529 26.3995 13 26.4489 13 26.486C13 26.6096 14.4934 27.3016 15.3625 27.5735C17.9698 28.3768 21.0667 28.0307 23.3925 26.659C25.045 25.6827 26.6976 23.7425 27.4687 21.8641C27.8849 20.8631 28.3011 19.0342 28.3011 18.1567C28.3011 17.5883 28.3378 17.5141 29.0233 16.8344C29.4273 16.439 29.8067 16.0065 29.8802 15.8829C30.0026 15.6481 29.9904 15.6481 29.3661 15.8582C28.3256 16.2289 28.1787 16.1795 28.6928 15.6234C29.0723 15.2279 29.5252 14.5112 29.5252 14.3011C29.5252 14.264 29.3416 14.3258 29.1335 14.437C28.9132 14.5606 28.4235 14.746 28.0563 14.8572L27.3953 15.0673L26.7955 14.6594C26.465 14.437 25.9998 14.1898 25.755 14.1157C25.1307 13.9427 24.1759 13.9674 23.6128 14.1651C22.0827 14.7212 21.1157 16.1548 21.2259 17.7242Z" fill="#282A2E"/>
</svg>
